<svg preserveAspectRatio="none" width="100%" height="100%" overflow="visible" style="display: block;" viewBox="0 0 44.4013 25.2203" fill="none" xmlns="http://www.w3.org/2000/svg">
<path id="Vector" d="M38.9736 1.14548C39.6619 0.996769 40.3959 0.931774 41.081 1.0986C41.8085 1.27587 42.4336 1.70454 42.8476 2.42575C43.2388 3.10723 43.4013 3.97826 43.4013 4.99899C43.4013 8.11933 41.2278 10.4336 38.7177 11.8857C37.394 12.6515 35.9068 13.2186 34.4414 13.5732C35.0577 14.051 35.5648 14.6312 35.8261 15.3047C36.1802 16.2173 36.0382 17.1917 35.3457 18.0078C34.7057 18.7618 33.6502 19.3232 32.2636 19.7187L32.2568 19.7207C30.4702 20.2163 28.2209 20.4564 26.0293 20.3349C25.3353 20.2964 24.6354 20.2206 23.9492 20.1015C24.0602 20.6031 24.0387 21.1168 23.8691 21.6142C23.289 23.316 21.2707 24.2207 18.9697 24.2207C16.0653 24.2207 13.6782 23.0612 11.4609 21.7715C11.4534 21.8113 11.4488 21.8515 11.4394 21.8906C11.2551 22.6598 10.7355 23.1613 10.08 23.3799C9.49278 23.5756 8.85039 23.5316 8.29782 23.416C7.72676 23.2964 7.14526 23.0775 6.62106 22.8154L6.59176 22.8008L6.56344 22.7842C4.00432 21.2891 2.94628 18.8814 2.04196 16.5146L2.04098 16.5127C1.22003 14.3457 0.579144 11.4441 1.33883 8.96286C1.72911 7.68829 2.48921 6.52982 3.75094 5.67771C4.99892 4.83493 6.66772 4.33897 8.80758 4.24606C16.8904 3.8952 20.8797 3.99038 26.0381 3.99899L26.8271 3.99216C30.6802 3.91525 33.2458 3.20268 36.8388 1.83298V1.83396C37.5529 1.54926 38.2804 1.29527 38.9736 1.14548Z" fill="var(--fill-0, white)" stroke="var(--stroke-0, #8496A0)" stroke-width="2"/>
</svg>
