<svg preserveAspectRatio="none" width="100%" height="100%" overflow="visible" style="display: block;" viewBox="0 0 133.374 41.3176" fill="none" xmlns="http://www.w3.org/2000/svg">
<g id="Group 150">
<path id="Vector" d="M118.233 2.39062C118.721 1.88374 119.295 1.42098 119.957 1.17792C120.66 0.91994 121.418 0.927843 122.163 1.29623C122.868 1.64431 123.488 2.27724 124.056 3.125C125.794 5.71654 125.278 8.8492 124.002 11.4533C123.329 12.8266 122.41 14.1259 121.39 15.2366C122.168 15.2901 122.913 15.4895 123.505 15.9033C124.307 16.4641 124.732 17.3525 124.611 18.416C124.5 19.3987 123.936 20.4528 123.004 21.5536L123 21.559C121.792 22.9657 120.058 24.4179 118.17 25.5377C117.572 25.8923 116.948 26.2191 116.312 26.5024C116.684 26.8571 116.952 27.2957 117.088 27.8033C117.554 29.5398 116.382 31.4153 114.471 32.6969C112.059 34.3145 109.43 34.6811 106.87 34.8449C106.886 34.8821 106.905 34.9181 106.919 34.9558C107.194 35.6973 107.042 36.4032 106.619 36.9498C106.241 37.4395 105.683 37.7607 105.159 37.9724C104.618 38.1912 104.013 38.3332 103.432 38.4075L103.4 38.4117L103.367 38.4137C100.409 38.5973 98.189 37.187 96.1197 35.7249L96.1178 35.7238C94.229 34.3814 92.0806 32.3284 91.3296 29.8445C90.9439 28.5686 90.9299 27.1831 91.5032 25.7726C92.0703 24.3776 93.1801 23.0362 94.9056 21.7672C101.423 16.9739 104.789 14.8311 109.078 11.9652L109.73 11.5201C112.887 9.31018 114.621 7.28938 116.843 4.1506L116.843 4.15142C117.278 3.51726 117.74 2.90112 118.233 2.39062Z" fill="var(--fill-0, white)" stroke="var(--stroke-0, #8496A0)" stroke-width="2"/>
<path id="Vector_2" d="M15.1417 2.39062C14.6529 1.88374 14.0795 1.42098 13.4175 1.17792C12.7146 0.91994 11.9567 0.927843 11.2111 1.29623C10.5066 1.64431 9.88657 2.27724 9.31805 3.125C7.58012 5.71654 8.09634 8.8492 9.37226 11.4533C10.0452 12.8266 10.9645 14.1259 11.984 15.2366C11.2061 15.2901 10.4617 15.4895 9.8696 15.9033C9.06721 16.4641 8.64244 17.3525 8.76309 18.416C8.8747 19.3987 9.43858 20.4528 10.3699 21.5536L10.3745 21.559C11.5823 22.9657 13.3166 24.4179 15.2045 25.5377C15.8024 25.8923 16.4259 26.2191 17.0621 26.5024C16.6906 26.8571 16.4223 27.2957 16.2861 27.8033C15.8201 29.5398 16.9925 31.4153 18.9035 32.6969C21.3157 34.3145 23.944 34.6811 26.504 34.8449C26.488 34.8821 26.4695 34.9181 26.4555 34.9558C26.1801 35.6973 26.3323 36.4032 26.755 36.9498C27.1337 37.4395 27.6917 37.7607 28.2151 37.9724C28.756 38.1912 29.3608 38.3332 29.9422 38.4075L29.9747 38.4117L30.0075 38.4137C32.9656 38.5973 35.1853 37.187 37.2546 35.7249L37.2565 35.7238C39.1453 34.3814 41.2937 32.3284 42.0447 29.8445C42.4304 28.5686 42.4444 27.1831 41.8711 25.7726C41.304 24.3776 40.1942 23.0362 38.4687 21.7672C31.951 16.9739 28.5848 14.8311 24.2958 11.9652L23.6443 11.5201C20.487 9.31018 18.753 7.28938 16.5318 4.1506L16.5313 4.15142C16.0968 3.51726 15.634 2.90112 15.1417 2.39062Z" fill="var(--fill-0, white)" stroke="var(--stroke-0, #8496A0)" stroke-width="2"/>
</g>
</svg>
