<svg preserveAspectRatio="none" width="100%" height="100%" overflow="visible" style="display: block;" viewBox="0 0 48 38.4739" fill="none" xmlns="http://www.w3.org/2000/svg">
<g id="Group 145" opacity="0.3">
<path id="Vector 21" d="M46.5 6.49995V19.5H1.5V6.49995H46.5Z" fill="var(--fill-0, #A9B5C3)" stroke="var(--stroke-0, #6E8096)" stroke-width="3"/>
<path id="Vector 20" d="M13.7178 2.43452C16.4492 1.70614 24.067 0.773696 33.8506 2.40425L35.002 2.59566L35.0996 3.75874C35.4348 7.78072 35.8366 14.0638 35.9541 19.8535C36.0128 22.7463 36.0011 25.5383 35.8711 27.873C35.745 30.1367 35.5 32.1827 34.9971 33.4404L34.1016 35.6787L32.4893 33.8876L24.6582 25.1865C23.3765 26.7232 21.7559 28.5712 20.1758 30.1835C19.1354 31.2452 18.0813 32.2368 17.1348 32.9736C16.6628 33.341 16.1843 33.6712 15.7227 33.916C15.2944 34.143 14.7225 34.3837 14.1045 34.3837C13.2882 34.3837 12.7788 33.8691 12.5381 33.5263C12.2975 33.1838 12.1521 32.7878 12.0547 32.4501C11.8542 31.755 11.73 30.8409 11.6484 29.833C11.4831 27.7887 11.4688 25.0061 11.542 21.9726C11.6888 15.8885 12.1913 8.60488 12.6094 3.75484L12.7002 2.70503L13.7178 2.43452Z" fill="var(--fill-0, #C16262)" stroke="var(--stroke-0, #8E3636)" stroke-width="3"/>
</g>
</svg>
