<svg preserveAspectRatio="none" width="100%" height="100%" overflow="visible" style="display: block;" viewBox="0 0 30.0002 19" fill="none" xmlns="http://www.w3.org/2000/svg">
<path id="Vector" d="M14.7618 1C15.0837 1.00017 15.3856 1.15551 15.5733 1.41699L21.0421 9.03418L27.4073 4.35254C27.7362 4.11061 28.1793 4.09272 28.5264 4.30762C28.8735 4.52254 29.0553 4.92695 28.9854 5.3291L26.9229 17.1719C26.8394 17.6506 26.4235 17.9999 25.9376 18H4.06258C3.57663 17.9999 3.16072 17.6506 3.07723 17.1719L1.01473 5.3291C0.945198 4.92892 1.12468 4.52631 1.46883 4.31055C1.81314 4.09474 2.25415 4.10849 2.58407 4.3457L8.69051 8.7373L13.9493 1.41699L14.0245 1.32324C14.2126 1.1184 14.4801 0.999984 14.7618 1Z" fill="var(--fill-0, #FFD92D)" stroke="var(--stroke-0, #A88B22)" stroke-width="2" stroke-linejoin="round"/>
</svg>
