<svg preserveAspectRatio="none" width="100%" height="100%" overflow="visible" style="display: block;" viewBox="0 0 24.6118 27.0003" fill="none" xmlns="http://www.w3.org/2000/svg">
<g id="Group 185">
<path id="Vector 34" d="M10.406 1.08202C12.0139 0.91412 13.6795 1.03161 14.7507 1.19237C15.8507 1.27235 17.2998 1.85455 18.3405 3.28222C19.4079 4.74649 19.9547 6.96802 19.4558 10.1543L19.323 11H14.529L14.8464 9.75292C15.0208 9.06758 15.1412 8.03606 14.9802 7.17382C14.8227 6.33084 14.4679 5.89194 13.8552 5.77147C12.4634 5.49806 11.4471 5.51984 10.7966 5.68651C10.1449 5.85352 10.0304 6.10493 10.0075 6.19432C9.9275 6.50876 9.89545 7.15346 9.91281 7.93749C9.92931 8.68317 9.98602 9.43768 10.0329 9.89843L10.1452 11H4.96163L4.8132 10.1777C4.67619 9.4204 4.57533 8.19879 4.69699 6.90526C4.81719 5.62723 5.16626 4.1529 6.0339 3.00292C6.53946 2.33287 7.26466 1.89962 8.00851 1.61522C8.75706 1.32907 9.59172 1.16707 10.406 1.08202Z" fill="var(--fill-0, #BDBDBD)" stroke="var(--stroke-0, #492607)" stroke-width="2"/>
<g id="Group 8">
<path id="Rectangle 5" d="M18.3532 9.98468C19.4102 9.98468 20.3103 9.98249 21.0153 10.0823C21.748 10.1861 22.4496 10.4216 22.9743 11.0355C23.4991 11.6496 23.6228 12.3803 23.611 13.1204C23.5997 13.8324 23.4565 14.7211 23.2917 15.7649L22.6091 20.0921C22.4223 21.275 22.2696 22.2545 22.0476 23.0228C21.8177 23.818 21.482 24.5066 20.8562 25.0413C20.2305 25.5759 19.4986 25.7996 18.6775 25.9026C17.884 26.0021 16.8926 26.0003 15.695 26.0003H8.74874C7.52155 26.0003 6.50642 26.0026 5.69601 25.8997C4.85767 25.7932 4.11169 25.561 3.48019 25.0071C2.8487 24.4532 2.52228 23.7434 2.30734 22.9261C2.09962 22.1361 1.96839 21.1299 1.80831 19.9134L1.24581 15.637C1.11119 14.6139 0.994558 13.7417 1.0007 13.0433C1.00712 12.3164 1.14474 11.6024 1.66769 11.0062C2.1906 10.4102 2.8797 10.1806 3.59933 10.0794C4.29093 9.98219 5.17091 9.98468 6.20285 9.98468H18.3532Z" fill="var(--fill-0, #BDBDBD)" stroke="var(--stroke-0, #492607)" stroke-width="2"/>
</g>
</g>
</svg>
