<svg preserveAspectRatio="none" width="100%" height="100%" overflow="visible" style="display: block;" viewBox="0 0 67 67" fill="none" xmlns="http://www.w3.org/2000/svg">
<g id="Group 183">
<rect id="Rectangle 31" x="2" y="2" width="63" height="63" rx="8" fill="var(--fill-0, black)" fill-opacity="0.8"/>
<g id="Exclude">
<mask id="path-2-outside-1_589_2127" maskUnits="userSpaceOnUse" x="0" y="0" width="67" height="67" fill="black">
<rect fill="white" width="67" height="67"/>
<path d="M57 2C61.4183 2 65 5.58172 65 10V57C65 61.4183 61.4183 65 57 65H10C5.58172 65 2 61.4183 2 57V10C2 5.58172 5.58172 2 10 2H57ZM12 6C8.68629 6 6 8.68629 6 12V55C6 58.3137 8.68629 61 12 61H55C58.3137 61 61 58.3137 61 55V12C61 8.68629 58.3137 6 55 6H12Z"/>
</mask>
<path d="M57 2C61.4183 2 65 5.58172 65 10V57C65 61.4183 61.4183 65 57 65H10C5.58172 65 2 61.4183 2 57V10C2 5.58172 5.58172 2 10 2H57ZM12 6C8.68629 6 6 8.68629 6 12V55C6 58.3137 8.68629 61 12 61H55C58.3137 61 61 58.3137 61 55V12C61 8.68629 58.3137 6 55 6H12Z" fill="var(--fill-0, #FFEFA9)"/>
<path d="M65 10H67V10H65ZM57 65V67V67V65ZM2 57H0V57H2ZM10 2V0V0V2ZM12 6V4V6ZM6 12H4V12H6ZM6 55H4H6ZM12 61V63V63V61ZM55 61V63V61ZM61 55H63V55H61ZM61 12H63H61ZM55 6V4V4V6ZM57 2V4C60.3137 4 63 6.68629 63 10H65H67C67 4.47715 62.5228 0 57 0V2ZM65 10H63V57H65H67V10H65ZM65 57H63C63 60.3137 60.3137 63 57 63V65V67C62.5228 67 67 62.5228 67 57H65ZM57 65V63H10V65V67H57V65ZM10 65V63C6.68629 63 4 60.3137 4 57H2H0C3.57628e-07 62.5228 4.47715 67 10 67V65ZM2 57H4V10H2H0V57H2ZM2 10H4C4 6.68629 6.68629 4 10 4V2V0C4.47715 3.57628e-07 0 4.47715 0 10H2ZM10 2V4H57V2V0H10V2ZM12 6V4C7.58172 4 4 7.58172 4 12H6H8C8 9.79086 9.79086 8 12 8V6ZM6 12H4V55H6H8V12H6ZM6 55H4C4 59.4183 7.58172 63 12 63V61V59C9.79086 59 8 57.2091 8 55H6ZM12 61V63H55V61V59H12V61ZM55 61V63C59.4183 63 63 59.4183 63 55H61H59C59 57.2091 57.2091 59 55 59V61ZM61 55H63V12H61H59V55H61ZM61 12H63C63 7.58172 59.4183 4 55 4V6V8C57.2091 8 59 9.79086 59 12H61ZM55 6V4H12V6V8H55V6Z" fill="var(--stroke-0, #492607)" mask="url(#path-2-outside-1_589_2127)"/>
</g>
<path id="Line 1 (Stroke)" d="M47.7637 26.8174L31.8213 45.6465L31.2324 46.3418L30.4853 45.8193L19.4268 38.0889L18.5644 37.4863L19.2109 36.6553L22.2969 32.6914L22.9863 31.8057L23.7871 32.5928L30.3848 39.0801L41.541 22.4434L42.1035 21.6045L42.9365 22.1748L47.5654 25.3457L48.4785 25.9717L47.7637 26.8174Z" fill="var(--fill-0, #FFEFA9)" stroke="var(--stroke-0, #492607)" stroke-width="2"/>
</g>
</svg>
